<?xml version="1.0" encoding="iso-8859-1"?>
<!-- Generator: Adobe Illustrator 18.0.0, SVG Export Plug-In . SVG Version: 6.00 Build 0)  -->
<!DOCTYPE svg PUBLIC "-//W3C//DTD SVG 1.1//EN" "http://www.w3.org/Graphics/SVG/1.1/DTD/svg11.dtd">
<svg version="1.1" id="Capa_1" xmlns="http://www.w3.org/2000/svg" xmlns:xlink="http://www.w3.org/1999/xlink" x="0px" y="0px"
  viewBox="0 0 443.615 443.615" style="enable-background:new 0 0 443.615 443.615;" xml:space="preserve">
<g>
 <path d="M209.949,100.813C209.949,45.232,164.725,0,109.144,0C53.562,0,8.346,45.232,8.346,100.813
  c0,55.566,45.216,100.782,100.798,100.782C164.725,201.596,209.949,156.38,209.949,100.813z M58.419,100.813
  c0-27.986,22.754-50.74,50.725-50.74c27.969,0,50.732,22.754,50.732,50.74c0,27.954-22.763,50.709-50.732,50.709
  C81.173,151.522,58.419,128.768,58.419,100.813z"/>
 <path d="M334.473,242.02c-55.583,0-100.799,45.216-100.799,100.782c0,55.582,45.216,100.814,100.799,100.814
  c55.581,0,100.797-45.231,100.797-100.814C435.27,287.235,390.054,242.02,334.473,242.02z M334.473,393.542
  c-27.971,0-50.726-22.755-50.726-50.74c0-27.954,22.755-50.709,50.726-50.709c27.969,0,50.724,22.755,50.724,50.709
  C385.196,370.787,362.441,393.542,334.473,393.542z"/>
 <path d="M337.577,12.925c-13.081-7.254-29.616-2.574-36.91,10.515L94.896,392.923c-7.294,13.089-2.59,29.616,10.505,36.919
  c4.181,2.314,8.713,3.423,13.179,3.423c9.527,0,18.77-5.02,23.733-13.936L348.083,49.845
  C355.376,36.755,350.675,20.228,337.577,12.925z"/>
</g>
</svg>
