<?xml version='1.0' encoding='iso-8859-1'?>
<!DOCTYPE svg PUBLIC '-//W3C//DTD SVG 1.1//EN' 'http://www.w3.org/Graphics/SVG/1.1/DTD/svg11.dtd'>
<svg version="1.1" xmlns="http://www.w3.org/2000/svg" viewBox="0 0 462 462" xmlns:xlink="http://www.w3.org/1999/xlink" enable-background="new 0 0 462 462">
  <g>
    <path d="m214.354,127.576c-0.012,0-0.023,0-0.035,0-4.261,0.015-8.045,2.729-9.426,6.76l-44.173,128.966c-1.046,3.055-0.553,6.427 1.324,9.054 1.878,2.627 4.908,4.187 8.137,4.187h89.361c3.241,0 6.281-1.571 8.157-4.215 1.875-2.644 2.353-6.033 1.28-9.092l-45.188-128.966c-1.405-4.011-5.19-6.694-9.437-6.694zm-30.178,128.966l30.285-88.419 30.981,88.419h-61.266z"/>
    <path d="m259.793,49.844c-1.445-3.937-5.194-6.554-9.388-6.554h-71.592c-4.193,0-7.942,2.617-9.388,6.553l-130.491,355.42c-1.126,3.068-0.683,6.492 1.188,9.171 1.87,2.679 4.932,4.276 8.199,4.276h73.116c4.292,0 8.104-2.738 9.476-6.805l27.662-82.05h111.635l28.634,82.146c1.399,4.017 5.188,6.708 9.442,6.708h72.608c3.268,0 6.329-1.596 8.199-4.276 1.871-2.679 2.314-6.103 1.188-9.17l-130.488-355.419zm55.597,348.866l-28.634-82.146c-1.399-4.017-5.188-6.708-9.442-6.708h-125.92c-4.292,0-8.104,2.738-9.476,6.805l-27.662,82.05h-51.61l123.149-335.42h57.629l123.146,335.419h-51.18z"/>
    <path d="m413.678,0c-5.522,0-10,4.477-10,10v442c0,5.523 4.478,10 10,10s10-4.477 10-10v-442c0-5.523-4.477-10-10-10z"/>
  </g>
</svg>
