<?xml version="1.0" encoding="UTF-8" standalone="no"?>
<!-- Created with Inkscape (http://www.inkscape.org/) -->

<svg
   xmlns:dc="http://purl.org/dc/elements/1.1/"
   xmlns:cc="http://creativecommons.org/ns#"
   xmlns:rdf="http://www.w3.org/1999/02/22-rdf-syntax-ns#"
   xmlns:svg="http://www.w3.org/2000/svg"
   xmlns="http://www.w3.org/2000/svg"
   version="1.1"
   viewBox="0 0 97.16 97.16"
   id="Capa_1"
   xml:space="preserve"><metadata
     id="metadata15"><rdf:RDF><cc:Work
         rdf:about=""><dc:format>image/svg+xml</dc:format><dc:type
           rdf:resource="http://purl.org/dc/dcmitype/StillImage" /><dc:title></dc:title></cc:Work></rdf:RDF></metadata><defs
     id="defs13"><marker
       refX="0"
       refY="0"
       orient="auto"
       id="TriangleOutL"
       style="overflow:visible"><path
         d="m 5.77,0 -8.65,5 0,-10 8.65,5 z"
         transform="scale(0.8,0.8)"
         id="path3915"
         style="fill-rule:evenodd;stroke:#000000;stroke-width:1pt" /></marker><marker
       refX="0"
       refY="0"
       orient="auto"
       id="Arrow2Lend"
       style="overflow:visible"><path
         d="M 8.7185878,4.0337352 -2.2072895,0.01601326 8.7185884,-4.0017078 c -1.7454984,2.3720609 -1.7354408,5.6174519 -6e-7,8.035443 z"
         transform="matrix(-1.1,0,0,-1.1,-1.1,0)"
         id="path3794"
         style="fill-rule:evenodd;stroke-width:0.625;stroke-linejoin:round" /></marker></defs><g
     id="g4601"><path
       d="M 73.898,47.08 H 52.066 V 20.83 c 0,-2.209 -1.791,-4 -4,-4 -2.209,0 -4,1.791 -4,4 v 30.25 c 0,2.209 1.791,4 4,4 h 25.832 c 2.209,0 4,-1.791 4,-4 0,-2.209 -1.791,-4 -4,-4 z"
       id="path9" /><path
       d="M -119.79519,12.965469 A 30.671272,30.671272 0 1 1 -135.8671,26.451402"
       transform="matrix(1.4349381,0,0,1.4752065,205.01421,-12.241116)"
       id="path2997"
       style="fill:none;stroke:#000000;stroke-width:5.63599825;stroke-miterlimit:4;stroke-opacity:1;stroke-dasharray:none;stroke-dashoffset:0;marker-end:none" /><path
       d="m -77.915013,64.53358 c -5.093995,-0.369707 -18.30895,-45.11892 -15.238331,-49.108348 3.07062,-3.989429 47.163541,2.496351 48.954671,7.243531 1.791129,4.74718 -28.622344,42.234524 -33.71634,41.864817 z"
       transform="matrix(0.1124536,0.47943814,-0.47943814,0.1124536,37.34987,55.677409)"
       id="path4599"
       style="fill:#000000;fill-opacity:1;stroke:#000000;stroke-width:8.19999981;stroke-miterlimit:4;stroke-opacity:1;stroke-dasharray:none;stroke-dashoffset:0" /></g></svg>
