<?xml version="1.0" encoding="UTF-8" standalone="no"?>
<svg
   xmlns:dc="http://purl.org/dc/elements/1.1/"
   xmlns:cc="http://creativecommons.org/ns#"
   xmlns:rdf="http://www.w3.org/1999/02/22-rdf-syntax-ns#"
   xmlns:svg="http://www.w3.org/2000/svg"
   xmlns="http://www.w3.org/2000/svg"
   viewBox="0 0 214.72 50.693333"
   height="50.693333"
   width="214.72"
   xml:space="preserve"
   id="svg2"
   version="1.1"><metadata
     id="metadata8"><rdf:RDF><cc:Work
         rdf:about=""><dc:format>image/svg+xml</dc:format><dc:type
           rdf:resource="http://purl.org/dc/dcmitype/StillImage" /><dc:title></dc:title></cc:Work></rdf:RDF></metadata><defs
     id="defs6" /><g
     transform="matrix(1.3333333,0,0,-1.3333333,0,50.693333)"
     id="g10"><g
       transform="scale(0.1)"
       id="g12"><path
         id="path14"
         style="fill:#231f20;fill-opacity:1;fill-rule:nonzero;stroke:none"
         d="m 1026.17,101.594 c -0.33,-5.1174 -1.32,-10.1096 -2.98,-14.9768 -1.64,-4.875 -3.96,-9.2149 -6.92,-13.0078 -4.47,-5.6172 -10.45,-10.4024 -17.957,-14.3672 -7.52,-3.9609 -16.227,-5.9414 -26.133,-5.9414 -9.914,0 -18.746,2.0234 -26.504,6.0703 -7.766,4.043 -13.867,8.7891 -18.332,14.2383 -4.789,6.1094 -8.336,13.1289 -10.645,21.0469 -2.312,7.9337 -3.472,16.6057 -3.472,26.0077 0,9.414 1.16,18.086 3.472,26.008 2.309,7.93 5.856,14.945 10.645,21.055 4.465,5.441 10.566,10.187 18.332,14.242 7.758,4.043 16.59,6.07 26.504,6.07 9.906,0 18.613,-1.984 26.133,-5.949 7.507,-3.965 13.487,-8.75 17.957,-14.363 2.96,-3.801 5.28,-8.137 6.92,-13.004 1.66,-4.875 2.65,-9.868 2.98,-14.981 h -30.467 c -0.168,2.309 -0.574,4.457 -1.23,6.442 -0.668,1.976 -1.493,3.789 -2.481,5.441 -1.82,2.809 -4.379,5.117 -7.679,6.934 -3.301,1.816 -7.344,2.73 -12.133,2.73 -4.297,0 -7.977,-0.746 -11.024,-2.23 -3.058,-1.485 -5.664,-3.391 -7.801,-5.7 -3.804,-4.125 -6.191,-9.082 -7.183,-14.851 -0.996,-5.789 -1.484,-11.731 -1.484,-17.844 0,-6.109 0.488,-12.012 1.484,-17.711 0.992,-5.6913 3.379,-10.6053 7.183,-14.7303 2.137,-2.3164 4.743,-4.2539 7.801,-5.8204 3.047,-1.5742 6.727,-2.3515 11.024,-2.3515 4.789,0 8.832,0.9023 12.133,2.7265 3.3,1.8125 5.859,4.1211 7.679,6.9297 0.988,1.6563 1.813,3.4727 2.481,5.4493 0.656,1.9843 1.062,4.125 1.23,6.4377 h 30.467" /><path
         id="path16"
         style="fill:#231f20;fill-opacity:1;fill-rule:nonzero;stroke:none"
         d="m 1155.2,119.43 c -0.16,-1.157 -0.24,-2.231 -0.24,-3.219 v -5.449 h -86.19 c 0,-4.949 0.78,-9.664 2.35,-14.1175 1.57,-4.4609 3.92,-8.1718 7.06,-11.1484 2.31,-2.1445 4.99,-4.0078 8.05,-5.5703 3.05,-1.5703 6.72,-2.3516 11.02,-2.3516 4.46,0 8.14,0.4531 11.02,1.3555 2.89,0.9101 5.48,2.5195 7.8,4.8359 2.98,2.9727 5.04,6.6016 6.2,10.8907 h 29.72 c -0.34,-3.7969 -1.61,-7.961 -3.84,-12.504 -2.23,-4.539 -4.59,-8.3007 -7.06,-11.2617 -5.45,-6.4414 -11.97,-11.0703 -19.57,-13.875 -7.59,-2.8047 -15.52,-4.2109 -23.77,-4.2109 -8.92,0 -16.64,1.4492 -23.16,4.3359 -6.53,2.8828 -12.34,6.7266 -17.46,11.5117 -6.44,6.2735 -11.35,13.7852 -14.74,22.5391 -3.39,8.75 -5.08,18.4136 -5.08,28.9846 0,10.398 1.53,20.019 4.59,28.851 3.05,8.836 7.71,16.387 13.99,22.664 4.79,4.954 10.6,8.914 17.47,11.887 6.84,2.969 14.72,4.461 23.64,4.461 9.58,0 18.5,-1.945 26.75,-5.82 8.26,-3.887 15.02,-9.871 20.31,-17.961 4.79,-7.102 7.84,-14.324 9.17,-21.668 1.32,-7.352 1.97,-15.07 1.97,-23.16 z m -30.95,13.871 c -0.16,9.41 -2.81,16.918 -7.93,22.539 -2.14,2.308 -4.83,4.125 -8.05,5.449 -3.22,1.313 -7.06,1.984 -11.52,1.984 -4.79,0 -9,-0.914 -12.63,-2.73 -3.63,-1.816 -6.6,-4.211 -8.92,-7.184 -2.31,-2.808 -3.95,-5.781 -4.95,-8.914 -0.99,-3.136 -1.56,-6.851 -1.73,-11.144 h 55.73" /><path
         id="path18"
         style="fill:#231f20;fill-opacity:1;fill-rule:nonzero;stroke:none"
         d="m 1255.52,56.0195 v 79.0155 c 0,7.594 -1.49,13.535 -4.46,17.832 -2.97,4.289 -8.59,6.442 -16.84,6.442 -5.45,0 -10,-1.532 -13.62,-4.586 -3.64,-3.059 -6.53,-6.973 -8.67,-11.762 -2.16,-4.793 -3.39,-10.363 -3.72,-16.723 -0.33,-6.355 -0.5,-12.254 -0.5,-17.707 V 56.0195 h -30.96 V 184.816 h 26.02 l 2.22,-16.589 c 3.8,6.769 9.2,11.757 16.22,14.976 7.02,3.223 14.25,4.836 21.68,4.836 6.93,0 13.08,-1.16 18.45,-3.473 5.36,-2.308 9.91,-5.488 13.62,-9.531 3.72,-4.055 6.56,-8.922 8.54,-14.613 1.98,-5.699 2.98,-11.852 2.98,-18.453 V 56.0195 h -30.96" /><path
         id="path20"
         style="fill:#231f20;fill-opacity:1;fill-rule:nonzero;stroke:none"
         d="m 1388.52,57.7578 c -8.93,-2.3086 -17.76,-3.4648 -26.51,-3.4648 -13.04,0 -22.79,3.5039 -29.22,10.5234 -6.44,7.0156 -9.65,16.7227 -9.65,29.0977 v 65.3949 h -23.54 v 25.507 h 23.54 v 32.696 l 30.95,7.676 v -40.372 h 32.45 v -25.507 h -32.45 V 96.6445 c 0,-4.9492 1.15,-8.5429 3.47,-10.7812 2.31,-2.2266 5.94,-3.3399 10.9,-3.3399 3.3,0 6.39,0.0782 9.28,0.2539 2.89,0.1563 6.48,0.4883 10.78,0.9883 V 57.7578" /><path
         id="path22"
         style="fill:#231f20;fill-opacity:1;fill-rule:nonzero;stroke:none"
         d="m 1513.84,119.43 c -0.16,-1.157 -0.24,-2.231 -0.24,-3.219 v -5.449 h -86.2 c 0,-4.949 0.78,-9.664 2.36,-14.1175 1.56,-4.4609 3.92,-8.1718 7.05,-11.1484 2.31,-2.1445 5,-4.0078 8.05,-5.5703 3.06,-1.5703 6.74,-2.3516 11.02,-2.3516 4.47,0 8.14,0.4531 11.03,1.3555 2.89,0.9101 5.49,2.5195 7.8,4.8359 2.97,2.9727 5.04,6.6016 6.19,10.8907 h 29.72 c -0.33,-3.7969 -1.6,-7.961 -3.84,-12.504 -2.22,-4.539 -4.57,-8.3007 -7.05,-11.2617 -5.45,-6.4414 -11.98,-11.0703 -19.57,-13.875 -7.6,-2.8047 -15.52,-4.2109 -23.77,-4.2109 -8.92,0 -16.65,1.4492 -23.17,4.3359 -6.52,2.8828 -12.34,6.7266 -17.46,11.5117 -6.44,6.2735 -11.36,13.7852 -14.74,22.5391 -3.38,8.75 -5.08,18.4136 -5.08,28.9846 0,10.398 1.53,20.019 4.59,28.851 3.06,8.836 7.71,16.387 14,22.664 4.78,4.954 10.6,8.914 17.45,11.887 6.85,2.969 14.74,4.461 23.66,4.461 9.57,0 18.49,-1.945 26.75,-5.82 8.25,-3.887 15.02,-9.871 20.31,-17.961 4.79,-7.102 7.84,-14.324 9.16,-21.668 1.32,-7.352 1.98,-15.07 1.98,-23.16 z m -30.95,13.871 c -0.18,9.41 -2.82,16.918 -7.93,22.539 -2.16,2.308 -4.84,4.125 -8.05,5.449 -3.22,1.313 -7.06,1.984 -11.52,1.984 -4.79,0 -9,-0.914 -12.64,-2.73 -3.63,-1.816 -6.6,-4.211 -8.91,-7.184 -2.31,-2.808 -3.96,-5.781 -4.95,-8.914 -1,-3.136 -1.58,-6.851 -1.74,-11.144 h 55.74" /><path
         id="path24"
         style="fill:#231f20;fill-opacity:1;fill-rule:nonzero;stroke:none"
         d="m 1610.43,156.086 c -3.79,0.824 -7.34,1.234 -10.64,1.234 -10.9,0 -19.16,-3.461 -24.77,-10.402 -5.61,-6.93 -8.42,-15.605 -8.42,-26 V 56.0195 h -31.21 V 184.816 h 26.26 l 2.72,-19.32 c 2.97,7.43 7.88,12.797 14.73,16.102 6.86,3.3 14.08,4.949 21.68,4.949 3.14,0 6.35,-0.242 9.65,-0.742 v -29.719" /><path
         id="path26"
         style="fill:#00adef;fill-opacity:1;fill-rule:nonzero;stroke:none"
         d="m 14.4297,155.434 c -2.1484,2.316 -4.83595,4.132 -8.04689,5.461 C 4.48047,161.672 2.3125,162.148 0,162.461 v -29.566 h 22.3672 c -0.1758,9.41 -2.8164,16.925 -7.9375,22.539" /><path
         id="path28"
         style="fill:#00adef;fill-opacity:1;fill-rule:nonzero;stroke:none"
         d="m 834.348,152.965 c -2.317,-2.817 -3.961,-5.785 -4.953,-8.922 -0.989,-3.141 -1.567,-6.859 -1.735,-11.148 h 22.735 v 29.5 c -2.575,-0.45 -4.969,-1.172 -7.129,-2.254 -3.633,-1.813 -6.606,-4.203 -8.918,-7.176" /><path
         id="path30"
         style="fill:#00adef;fill-opacity:1;fill-rule:nonzero;stroke:none"
         d="m 473.695,160.895 c -3.211,1.312 -7.05,1.98 -11.515,1.98 -4.793,0 -9.004,-0.91 -12.637,-2.734 -3.637,-1.813 -6.609,-4.203 -8.922,-7.176 -2.316,-2.817 -3.965,-5.785 -4.957,-8.922 -0.98,-3.141 -1.562,-6.859 -1.726,-11.148 h 55.75 c -0.168,9.41 -2.813,16.925 -7.93,22.539 -2.149,2.316 -4.828,4.132 -8.063,5.461" /><path
         id="path32"
         style="fill:#00adef;fill-opacity:1;fill-rule:nonzero;stroke:none"
         d="m 816.266,68.2188 c -6.446,6.2734 -11.364,13.7851 -14.75,22.5468 -3.375,8.75 -5.078,18.4184 -5.078,28.9964 0,10.41 1.527,20.023 4.585,28.859 3.047,8.84 7.723,16.399 13.997,22.68 4.793,4.949 10.609,8.918 17.476,11.887 5.332,2.32 11.313,3.707 17.899,4.218 v 81.895 H 0 v -81.899 c 7.73438,-0.554 15.0352,-2.367 21.8633,-5.57 8.2695,-3.887 15.0351,-9.879 20.3242,-17.969 4.7852,-7.105 7.8438,-14.332 9.1641,-21.679 1.3203,-7.356 1.9843,-15.079 1.9843,-23.164 -0.164,-1.157 -0.2461,-2.239 -0.2461,-3.231 v -5.441 H 0 V 77.3984 c 2.38672,0.2149 4.58984,0.543 6.38281,1.1016 2.89063,0.9063 5.48829,2.5156 7.80079,4.8359 2.9727,2.9727 5.0391,6.6055 6.1992,10.8946 H 50.1133 C 49.7852,90.4336 48.5,86.2695 46.2695,81.7227 44.0469,77.1797 41.6953,73.418 39.2148,70.4492 33.7656,64.0039 27.2266,59.375 19.6328,56.5742 13.3242,54.2422 6.77344,52.9297 0,52.5391 V 0 h 850.395 v 52.6367 c -6.223,0.5469 -11.774,1.8985 -16.665,4.0625 -6.527,2.8867 -12.347,6.7305 -17.464,11.5196 z M 199.902,86.5547 c -2.734,-5.9492 -6.23,-11.0703 -10.539,-15.3672 -6.761,-6.7695 -14.988,-11.6016 -24.644,-14.4883 -9.668,-2.8906 -19.953,-4.3437 -30.856,-4.3437 -9.414,0 -18.699,1.3672 -27.879,4.0937 -9.1637,2.7227 -17.3824,7.3906 -24.652,14 -5.2812,4.7852 -9.664,10.6953 -13.1289,17.7188 -3.4687,7.0195 -5.2109,14.738 -5.2109,23.164 h 32.7109 c 0,-4.301 0.8711,-8.305 2.6016,-12.0195 1.7383,-3.7227 3.9183,-6.9023 6.5783,-9.5312 3.789,-3.8047 8.371,-6.3243 13.738,-7.5625 5.367,-1.2383 10.621,-1.8633 15.742,-1.8633 6.106,0 11.887,0.7109 17.352,2.1093 5.441,1.4024 9.816,3.8438 13.125,7.3165 1.976,2.1367 3.637,4.4101 4.961,6.8125 1.32,2.3906 1.972,5.7342 1.972,10.0272 0,6.445 -2.101,11.281 -6.32,14.5 -4.207,3.219 -9.043,5.328 -14.484,6.317 -5.953,1.156 -12.477,1.988 -19.586,2.484 -7.102,0.492 -13.535,1.238 -19.328,2.223 -6.11,0.996 -11.844,2.726 -17.2112,5.203 -5.375,2.476 -10.0782,5.738 -14.1368,9.793 -4.0429,4.043 -7.2656,8.918 -9.6562,14.617 -2.3945,5.699 -3.5899,12.183 -3.5899,19.449 0,6.941 1.3946,13.297 4.2071,19.082 2.8047,5.785 6.5195,10.984 11.1562,15.606 5.7774,5.789 13.2071,10.32 22.3048,13.636 9.074,3.301 18.824,4.953 29.234,4.953 9.41,0 18.453,-1.445 27.129,-4.336 8.68,-2.89 15.985,-7.144 21.938,-12.765 5.281,-4.957 9.535,-10.567 12.761,-16.852 3.211,-6.273 4.903,-13.125 5.075,-20.558 h -32.711 c -0.16,3.129 -0.953,6.234 -2.356,9.285 -1.398,3.058 -3.179,5.742 -5.32,8.062 -2.82,2.969 -6.781,5.282 -11.899,6.93 -5.125,1.648 -10.078,2.484 -14.863,2.484 -4.957,0 -10.039,-0.66 -15.234,-1.988 -5.211,-1.324 -9.629,-3.887 -13.27,-7.68 -1.824,-1.976 -3.265,-4.132 -4.328,-6.441 -1.074,-2.32 -1.6209,-5.121 -1.6209,-8.422 0,-5.785 1.6599,-10.207 4.9609,-13.262 3.305,-3.058 7.598,-4.996 12.891,-5.816 5.613,-0.828 11.933,-1.57 18.953,-2.23 7.015,-0.668 13.418,-1.407 19.207,-2.239 6.605,-0.992 12.84,-2.761 18.699,-5.32 5.863,-2.563 10.992,-5.953 15.371,-10.16 4.375,-4.215 7.844,-9.293 10.406,-15.242 2.563,-5.946 3.84,-12.637 3.84,-20.071 0,-8.2614 -1.359,-15.363 -4.09,-21.3083 z m 48.188,15.9843 c 0.992,-5.7031 3.39,-10.621 7.187,-14.746 2.141,-2.3125 4.758,-4.2539 7.805,-5.8242 3.051,-1.5743 6.731,-2.3516 11.027,-2.3516 4.793,0 8.84,0.9023 12.141,2.7226 3.305,1.8125 5.867,4.1368 7.691,6.9336 0.981,1.6563 1.813,3.4688 2.473,5.4649 0.656,1.9726 1.066,4.125 1.231,6.4377 h 30.492 c -0.344,-5.1291 -1.336,-10.1252 -2.981,-14.9885 -1.648,-4.8789 -3.968,-9.2148 -6.933,-13.0117 -4.469,-5.6211 -10.457,-10.4102 -17.969,-14.375 -7.524,-3.961 -16.231,-5.9492 -26.145,-5.9492 -9.91,0 -18.754,2.0273 -26.511,6.0742 -7.758,4.043 -13.875,8.793 -18.34,14.25 -4.801,6.1055 -8.34,13.1328 -10.653,21.0547 -2.316,7.9335 -3.468,16.6095 -3.468,26.0235 0,9.414 1.152,18.086 3.468,26.012 2.313,7.933 5.852,14.949 10.653,21.07 4.465,5.449 10.582,10.199 18.34,14.242 7.757,4.047 16.601,6.074 26.511,6.074 9.914,0 18.621,-1.976 26.145,-5.953 7.512,-3.961 13.5,-8.758 17.969,-14.363 2.965,-3.801 5.285,-8.145 6.933,-13.004 1.645,-4.883 2.637,-9.879 2.981,-15 h -30.492 c -0.165,2.313 -0.575,4.461 -1.231,6.445 -0.66,1.977 -1.492,3.793 -2.473,5.446 -1.824,2.808 -4.386,5.121 -7.691,6.945 -3.301,1.812 -7.348,2.727 -12.141,2.727 -4.296,0 -7.976,-0.754 -11.027,-2.239 -3.047,-1.484 -5.664,-3.386 -7.805,-5.691 -3.797,-4.137 -6.195,-9.094 -7.187,-14.867 -0.981,-5.789 -1.485,-11.735 -1.485,-17.844 0,-6.113 0.504,-12.02 1.485,-17.715 z M 380.172,55.5859 H 348.699 V 184.434 h 31.473 z m 0.73,146.6841 h -33.199 v 31.968 h 33.199 z m 139.504,-86.481 v -5.441 H 434.18 c 0,-4.961 0.793,-9.672 2.351,-14.1253 1.571,-4.4688 3.93,-8.1797 7.067,-11.1524 2.308,-2.1562 4.992,-4.0039 8.05,-5.5742 3.055,-1.5742 6.731,-2.3516 11.032,-2.3516 4.461,0 8.133,0.4493 11.015,1.3555 2.891,0.9063 5.493,2.5156 7.821,4.8359 2.964,2.9727 5.027,6.6055 6.183,10.8946 h 29.739 c -0.336,-3.7969 -1.61,-7.961 -3.84,-12.5078 -2.231,-4.543 -4.59,-8.3047 -7.067,-11.2735 -5.445,-6.4453 -11.968,-11.0742 -19.574,-13.875 -7.594,-2.8086 -15.531,-4.2187 -23.789,-4.2187 -8.922,0 -16.637,1.4531 -23.164,4.3437 -6.527,2.8867 -12.348,6.7305 -17.469,11.5196 -6.441,6.2734 -11.351,13.7851 -14.746,22.5468 -3.379,8.75 -5.078,18.4184 -5.078,28.9964 0,10.41 1.523,20.023 4.586,28.859 3.051,8.84 7.723,16.399 13.996,22.68 4.797,4.949 10.609,8.918 17.477,11.887 6.851,2.98 14.73,4.464 23.652,4.464 9.586,0 18.508,-1.945 26.773,-5.82 8.25,-3.887 15.024,-9.879 20.313,-17.969 4.789,-7.105 7.847,-14.332 9.168,-21.679 1.32,-7.356 1.984,-15.079 1.984,-23.164 -0.168,-1.157 -0.254,-2.239 -0.254,-3.231 z M 651.988,55.5859 h -30.98 v 79.0311 c 0,7.61 -1.488,13.547 -4.461,17.848 -2.977,4.293 -8.594,6.437 -16.84,6.437 -5.465,0 -10.004,-1.523 -13.637,-4.57 -3.632,-3.062 -6.527,-6.988 -8.668,-11.773 -2.148,-4.801 -3.394,-10.371 -3.718,-16.735 -0.34,-6.355 -0.496,-12.265 -0.496,-17.715 V 55.5859 H 542.211 V 184.434 h 26.027 l 2.223,-16.602 c 3.793,6.77 9.203,11.77 16.227,14.984 7.023,3.231 14.253,4.836 21.687,4.836 6.938,0 13.094,-1.156 18.457,-3.472 5.371,-2.313 9.914,-5.489 13.633,-9.532 3.719,-4.062 6.562,-8.925 8.539,-14.628 1.988,-5.688 2.984,-11.856 2.984,-18.446 z m 53.27,46.9531 c 0.98,-5.7031 3.387,-10.621 7.18,-14.746 2.152,-2.3125 4.75,-4.2539 7.804,-5.8242 3.063,-1.5743 6.735,-2.3516 11.031,-2.3516 4.79,0 8.84,0.9023 12.145,2.7226 3.297,1.8125 5.855,4.1368 7.687,6.9336 0.989,1.6563 1.805,3.4688 2.473,5.4649 0.656,1.9726 1.067,4.125 1.235,6.4377 h 30.48 c -0.336,-5.1291 -1.316,-10.1252 -2.984,-14.9885 -1.645,-4.8789 -3.957,-9.2148 -6.926,-13.0117 -4.469,-5.6211 -10.445,-10.4102 -17.965,-14.375 -7.52,-3.961 -16.23,-5.9492 -26.145,-5.9492 -9.918,0 -18.753,2.0273 -26.515,6.0742 -7.762,4.043 -13.879,8.793 -18.332,14.25 -4.793,6.1055 -8.344,13.1328 -10.66,21.0547 -2.321,7.9335 -3.465,16.6095 -3.465,26.0235 0,9.414 1.144,18.086 3.465,26.012 2.316,7.933 5.867,14.949 10.66,21.07 4.453,5.449 10.57,10.199 18.332,14.242 7.762,4.047 16.597,6.074 26.515,6.074 9.915,0 18.625,-1.976 26.145,-5.953 7.52,-3.961 13.496,-8.758 17.965,-14.363 2.969,-3.801 5.281,-8.145 6.926,-13.004 1.668,-4.883 2.648,-9.879 2.984,-15 h -30.48 c -0.168,2.313 -0.579,4.461 -1.235,6.445 -0.668,1.977 -1.484,3.793 -2.473,5.446 -1.832,2.808 -4.39,5.121 -7.687,6.945 -3.305,1.812 -7.355,2.727 -12.145,2.727 -4.296,0 -7.968,-0.754 -11.031,-2.239 -3.054,-1.484 -5.652,-3.386 -7.804,-5.691 -3.793,-4.137 -6.2,-9.094 -7.18,-14.867 -0.988,-5.789 -1.492,-11.735 -1.492,-17.844 0,-6.113 0.504,-12.02 1.492,-17.715" /><path
         id="path34"
         style="fill:#00adef;fill-opacity:1;fill-rule:nonzero;stroke:none"
         d="m 830.266,96.2227 c 1.558,-4.4688 3.918,-8.1797 7.058,-11.1524 2.309,-2.1562 4.989,-4.0039 8.051,-5.5742 1.516,-0.7813 3.195,-1.3672 5.02,-1.7617 V 110.348 H 827.91 c 0,-4.961 0.785,-9.672 2.356,-14.1253" /><path
         id="path36"
         style="fill:#231f20;fill-opacity:1;fill-rule:nonzero;stroke:none"
         d="m 30.0313,311.949 v 30.121 c 0,2.895 -0.5665,5.16 -1.6993,6.797 -1.1328,1.637 -3.2734,2.457 -6.4257,2.457 -2.0704,0 -3.8125,-0.582 -5.1875,-1.75 -1.3868,-1.16 -2.4922,-2.656 -3.3125,-4.48 -0.8165,-1.828 -1.2891,-3.949 -1.4141,-6.379 -0.1289,-2.422 -0.1875,-4.672 -0.1875,-6.746 v -20.02 H 0 v 49.102 h 9.91406 l 0.85934,-6.328 c 1.4454,2.582 3.5039,4.488 6.1797,5.711 2.6758,1.23 5.4297,1.843 8.2617,1.843 2.6446,0 4.9922,-0.441 7.0313,-1.32 2.0508,-0.883 3.7812,-2.094 5.1953,-3.637 1.4141,-1.543 2.5,-3.398 3.2617,-5.57 0.7539,-2.176 1.1328,-4.52 1.1328,-7.039 V 311.949 H 30.0313" /><path
         id="path38"
         style="fill:#231f20;fill-opacity:1;fill-rule:nonzero;stroke:none"
         d="m 95.4688,336.125 c -0.0665,-0.445 -0.0977,-0.852 -0.0977,-1.23 v -2.079 H 62.5117 c 0,-1.886 0.3008,-3.679 0.8946,-5.378 0.5976,-1.704 1.496,-3.122 2.6953,-4.254 0.8789,-0.817 1.8945,-1.524 3.0664,-2.125 1.164,-0.598 2.5586,-0.899 4.1992,-0.899 1.7031,0 3.1055,0.176 4.2031,0.524 1.1016,0.347 2.0977,0.957 2.9766,1.839 1.1328,1.133 1.9258,2.516 2.3633,4.157 h 11.3281 c -0.1289,-1.45 -0.6172,-3.035 -1.4649,-4.77 -0.8515,-1.734 -1.7461,-3.164 -2.6836,-4.297 -2.082,-2.453 -4.5703,-4.218 -7.4609,-5.289 -2.9023,-1.07 -5.918,-1.601 -9.0742,-1.601 -3.3984,0 -6.3359,0.55 -8.8281,1.652 -2.4805,1.098 -4.7071,2.563 -6.6485,4.387 -2.4648,2.394 -4.3398,5.261 -5.625,8.593 -1.2929,3.336 -1.9336,7.02 -1.9336,11.051 0,3.965 0.5821,7.633 1.7461,11 1.1602,3.367 2.9414,6.246 5.3321,8.641 1.8242,1.887 4.0429,3.398 6.6601,4.531 2.6055,1.133 5.6133,1.699 9.0156,1.699 3.6485,0 7.0508,-0.738 10.2032,-2.218 3.1445,-1.481 5.7226,-3.766 7.7461,-6.844 1.8125,-2.711 2.9882,-5.465 3.4843,-8.262 0.5078,-2.805 0.7618,-5.75 0.7618,-8.828 z m -11.8086,5.285 c -0.0586,3.59 -1.0704,6.453 -3.0157,8.59 -0.8203,0.883 -1.8476,1.578 -3.0742,2.082 -1.2226,0.5 -2.6875,0.754 -4.3867,0.754 -1.8281,0 -3.4375,-0.344 -4.8164,-1.039 -1.3867,-0.692 -2.5195,-1.606 -3.3984,-2.738 -0.8868,-1.071 -1.5118,-2.204 -1.8907,-3.399 -0.3828,-1.195 -0.5976,-2.613 -0.6679,-4.25 h 21.25" /><path
         id="path40"
         style="fill:#231f20;fill-opacity:1;fill-rule:nonzero;stroke:none"
         d="m 131.914,312.609 c -3.398,-0.879 -6.769,-1.32 -10.105,-1.32 -4.973,0 -8.684,1.332 -11.145,4.016 -2.449,2.668 -3.684,6.371 -3.684,11.093 v 24.926 h -8.9605 v 9.727 h 8.9605 v 12.465 l 11.809,2.925 v -15.39 h 12.371 v -9.727 h -12.371 v -23.886 c 0,-1.891 0.441,-3.262 1.316,-4.114 0.891,-0.847 2.266,-1.273 4.165,-1.273 1.257,0 2.441,0.035 3.535,0.097 1.101,0.059 2.468,0.188 4.109,0.375 v -9.914" /><path
         id="path42"
         style="fill:#231f20;fill-opacity:1;fill-rule:nonzero;stroke:none"
         d="m 170.059,311.949 v 30.313 c 0,2.832 -0.567,5.062 -1.7,6.703 -1.132,1.637 -3.269,2.457 -6.425,2.457 -1.758,0 -3.282,-0.426 -4.571,-1.281 -1.3,-0.848 -2.351,-1.934 -3.164,-3.254 -0.82,-1.321 -1.418,-2.785 -1.797,-4.391 -0.382,-1.605 -0.566,-3.164 -0.566,-4.672 v -25.875 h -11.809 v 68.172 h 11.809 v -24.266 c 1.445,2.079 3.398,3.668 5.852,4.77 2.457,1.098 4.976,1.652 7.554,1.652 2.649,0 4.992,-0.441 7.031,-1.32 2.051,-0.883 3.782,-2.109 5.2,-3.68 1.414,-1.578 2.5,-3.433 3.257,-5.574 0.754,-2.14 1.133,-4.473 1.133,-6.992 v -32.762 h -11.804" /><path
         id="path44"
         style="fill:#231f20;fill-opacity:1;fill-rule:nonzero;stroke:none"
         d="m 235.496,336.125 c -0.066,-0.445 -0.098,-0.852 -0.098,-1.23 v -2.079 h -32.859 c 0,-1.886 0.305,-3.679 0.899,-5.378 0.593,-1.704 1.496,-3.122 2.695,-4.254 0.879,-0.817 1.894,-1.524 3.066,-2.125 1.16,-0.598 2.559,-0.899 4.199,-0.899 1.7,0 3.106,0.176 4.2,0.524 1.101,0.347 2.097,0.957 2.976,1.839 1.137,1.133 1.926,2.516 2.364,4.157 h 11.332 c -0.129,-1.45 -0.618,-3.035 -1.465,-4.77 -0.852,-1.734 -1.75,-3.164 -2.688,-4.297 -2.082,-2.453 -4.57,-4.218 -7.461,-5.289 -2.898,-1.07 -5.918,-1.601 -9.07,-1.601 -3.398,0 -6.34,0.55 -8.828,1.652 -2.485,1.098 -4.707,2.563 -6.653,4.387 -2.46,2.394 -4.335,5.261 -5.625,8.593 -1.289,3.336 -1.933,7.02 -1.933,11.051 0,3.965 0.586,7.633 1.75,11 1.16,3.367 2.937,6.246 5.332,8.641 1.824,1.887 4.043,3.398 6.656,4.531 2.61,1.133 5.617,1.699 9.016,1.699 3.652,0 7.051,-0.738 10.207,-2.218 3.14,-1.481 5.722,-3.766 7.742,-6.844 1.816,-2.711 2.988,-5.465 3.484,-8.262 0.508,-2.805 0.762,-5.75 0.762,-8.828 z m -11.805,5.285 c -0.058,3.59 -1.074,6.453 -3.015,8.59 -0.821,0.883 -1.848,1.578 -3.078,2.082 -1.219,0.5 -2.688,0.754 -4.383,0.754 -1.828,0 -3.442,-0.344 -4.817,-1.039 -1.386,-0.692 -2.519,-1.606 -3.398,-2.738 -0.891,-1.071 -1.516,-2.204 -1.895,-3.399 -0.378,-1.195 -0.593,-2.613 -0.664,-4.25 h 21.25" /><path
         id="path46"
         style="fill:#231f20;fill-opacity:1;fill-rule:nonzero;stroke:none"
         d="m 273.27,350.098 c -1.446,0.312 -2.801,0.468 -4.059,0.468 -4.152,0 -7.309,-1.316 -9.445,-3.964 -2.137,-2.641 -3.203,-5.946 -3.203,-9.911 v -24.742 h -11.907 v 49.102 h 10.012 l 1.047,-7.363 c 1.133,2.832 2.996,4.878 5.613,6.136 2.61,1.254 5.36,1.887 8.262,1.887 1.191,0 2.422,-0.094 3.68,-0.285 v -11.328" /><path
         id="path48"
         style="fill:#231f20;fill-opacity:1;fill-rule:nonzero;stroke:none"
         d="m 298.391,312.043 c -1.196,-0.25 -2.063,-0.426 -2.602,-0.52 -0.535,-0.093 -1.394,-0.14 -2.598,-0.14 -4.019,0 -7.261,1.039 -9.722,3.113 -2.453,2.082 -3.684,5.445 -3.684,10.106 v 55.617 h 11.903 v -53.637 c 0,-1.445 0.285,-2.594 0.851,-3.441 0.566,-0.852 1.856,-1.274 3.867,-1.274 0.508,0 0.879,0.012 1.133,0.043 0.254,0.035 0.535,0.047 0.852,0.047 v -9.914" /><path
         id="path50"
         style="fill:#231f20;fill-opacity:1;fill-rule:nonzero;stroke:none"
         d="m 349.465,312.516 c -1.008,-0.442 -1.867,-0.774 -2.602,-0.993 -0.718,-0.218 -1.804,-0.332 -3.25,-0.332 -2.578,0 -4.57,0.696 -5.945,2.082 -1.391,1.379 -2.18,2.989 -2.363,4.813 -1.133,-2.016 -3.02,-3.746 -5.664,-5.195 -2.649,-1.446 -5.735,-2.168 -9.258,-2.168 -2.961,0 -5.539,0.425 -7.746,1.273 -2.199,0.852 -4.043,1.984 -5.52,3.399 -1.48,1.418 -2.597,3.054 -3.355,4.91 -0.754,1.859 -1.133,3.793 -1.133,5.808 0,2.328 0.43,4.407 1.277,6.231 0.852,1.828 2.032,3.398 3.543,4.722 1.504,1.325 3.274,2.344 5.285,3.071 2.012,0.722 4.192,1.176 6.512,1.367 l 14.453,1.039 v 3.023 c 0,2.325 -0.554,4.2 -1.656,5.618 -1.098,1.414 -3.32,2.121 -6.652,2.121 -2.774,0 -4.93,-0.594 -6.477,-1.789 -1.543,-1.2 -2.371,-2.93 -2.5,-5.196 h -11.426 c 0.188,2.766 0.84,5.16 1.938,7.176 1.101,2.012 2.566,3.668 4.39,4.957 1.829,1.289 3.938,2.25 6.329,2.879 2.394,0.633 4.972,0.945 7.746,0.945 4.218,0 7.976,-0.738 11.281,-2.218 3.308,-1.481 5.683,-4.079 7.129,-7.789 0.633,-1.575 1.023,-3.211 1.179,-4.911 0.157,-1.699 0.235,-3.371 0.235,-5.004 v -18.222 c 0,-1.133 0.207,-1.942 0.613,-2.41 0.41,-0.473 1.125,-0.707 2.133,-0.707 0.496,0 0.848,0.031 1.031,0.093 0.188,0 0.344,0.028 0.473,0.094 z m -15.766,21.246 -12.469,-0.946 c -1.828,-0.125 -3.457,-0.726 -4.914,-1.796 -1.445,-1.067 -2.168,-2.61 -2.168,-4.622 0,-1.89 0.715,-3.386 2.129,-4.488 1.418,-1.097 3.039,-1.652 4.868,-1.652 3.71,0 6.726,0.957 9.058,2.883 2.324,1.918 3.496,4.703 3.496,8.355 v 2.266" /><path
         id="path52"
         style="fill:#231f20;fill-opacity:1;fill-rule:nonzero;stroke:none"
         d="m 387.898,311.949 v 30.121 c 0,2.895 -0.562,5.16 -1.699,6.797 -1.133,1.637 -3.269,2.457 -6.426,2.457 -2.07,0 -3.804,-0.582 -5.183,-1.75 -1.387,-1.16 -2.488,-2.656 -3.313,-4.48 -0.816,-1.828 -1.289,-3.949 -1.414,-6.379 -0.129,-2.422 -0.183,-4.672 -0.183,-6.746 v -20.02 h -11.809 v 49.102 h 9.91 l 0.864,-6.328 c 1.445,2.582 3.503,4.488 6.179,5.711 2.676,1.23 5.43,1.843 8.262,1.843 2.644,0 4.988,-0.441 7.031,-1.32 2.051,-0.883 3.778,-2.094 5.196,-3.637 1.417,-1.543 2.5,-3.398 3.261,-5.57 0.75,-2.176 1.133,-4.52 1.133,-7.039 v -32.762 h -11.809" /><path
         id="path54"
         style="fill:#231f20;fill-opacity:1;fill-rule:nonzero;stroke:none"
         d="m 443.613,311.949 -0.761,5.379 c -1.446,-2.265 -3.426,-3.914 -5.95,-4.953 -2.515,-1.043 -5.125,-1.559 -7.832,-1.559 -2.461,0 -4.695,0.375 -6.707,1.133 -2.011,0.758 -3.777,1.762 -5.285,3.024 -2.957,2.39 -5.144,5.394 -6.558,9.015 -1.418,3.621 -2.129,7.754 -2.129,12.418 0,9.758 2.925,17.055 8.777,21.907 1.516,1.257 3.262,2.234 5.242,2.929 1.985,0.688 4.231,1.035 6.75,1.035 3.153,0 5.813,-0.457 7.981,-1.367 2.175,-0.914 3.797,-2 4.863,-3.258 v 22.469 h 11.805 v -68.172 z m -1.047,24.645 c 0,1.761 -0.132,3.574 -0.418,5.429 -0.285,1.856 -0.839,3.559 -1.652,5.102 -0.816,1.539 -1.949,2.797 -3.394,3.773 -1.457,0.977 -3.34,1.465 -5.676,1.465 -1.824,0 -3.379,-0.375 -4.668,-1.133 -1.289,-0.757 -2.383,-1.667 -3.262,-2.738 -1.262,-1.637 -2.09,-3.492 -2.5,-5.57 -0.41,-2.078 -0.613,-4.188 -0.613,-6.328 0,-2.141 0.203,-4.266 0.613,-6.375 0.41,-2.11 1.238,-3.985 2.5,-5.617 0.879,-1.071 1.973,-1.985 3.262,-2.735 1.289,-0.758 2.844,-1.14 4.668,-1.14 2.336,0 4.219,0.488 5.676,1.464 1.445,0.977 2.578,2.239 3.394,3.782 0.813,1.543 1.367,3.257 1.652,5.144 0.286,1.891 0.418,3.711 0.418,5.477" /><path
         id="path56"
         style="fill:#231f20;fill-opacity:1;fill-rule:nonzero;stroke:none"
         d="m 504.805,327.152 c 0,-2.394 -0.403,-4.472 -1.184,-6.234 -0.789,-1.762 -1.812,-3.27 -3.074,-4.531 -2.012,-2.016 -4.461,-3.461 -7.363,-4.344 -2.891,-0.879 -6.043,-1.32 -9.446,-1.32 -3.14,0 -6.07,0.453 -8.777,1.367 -2.703,0.914 -5.066,2.344 -7.078,4.297 -1.445,1.383 -2.68,3.051 -3.684,5.004 -1.008,1.949 -1.511,4.093 -1.511,6.422 h 11.042 c 0,-1.071 0.254,-2.145 0.762,-3.211 0.496,-1.071 1.133,-1.922 1.887,-2.551 0.945,-0.75 2,-1.305 3.164,-1.649 1.16,-0.347 2.598,-0.523 4.297,-0.523 1.004,0 2.09,0.078 3.262,0.238 1.16,0.156 2.246,0.453 3.25,0.899 1.003,0.441 1.843,1.07 2.5,1.886 0.664,0.821 0.996,1.887 0.996,3.211 0,1.446 -0.442,2.614 -1.321,3.492 -0.886,0.883 -2.078,1.45 -3.589,1.7 -2.208,0.316 -4.473,0.582 -6.797,0.804 -2.336,0.219 -4.602,0.582 -6.797,1.086 -1.699,0.379 -3.235,0.977 -4.582,1.797 -1.36,0.813 -2.539,1.805 -3.543,2.973 -1.008,1.16 -1.781,2.457 -2.317,3.871 -0.539,1.418 -0.8,2.91 -0.8,4.484 0,2.52 0.468,4.676 1.418,6.469 0.945,1.793 2.136,3.32 3.589,4.578 1.821,1.574 3.996,2.785 6.516,3.633 2.52,0.852 5.313,1.277 8.398,1.277 2.957,0 5.813,-0.468 8.543,-1.418 2.747,-0.941 5.024,-2.39 6.848,-4.339 1.328,-1.45 2.383,-3.04 3.164,-4.77 0.789,-1.734 1.184,-3.512 1.184,-5.332 h -11.235 c 0,0.941 -0.191,1.789 -0.562,2.547 -0.383,0.754 -0.852,1.445 -1.418,2.074 -0.692,0.695 -1.629,1.246 -2.793,1.656 -1.16,0.407 -2.371,0.61 -3.633,0.61 -0.879,0 -1.726,-0.028 -2.551,-0.09 -0.816,-0.067 -1.668,-0.285 -2.547,-0.66 -1.074,-0.446 -1.972,-1.106 -2.695,-1.989 -0.723,-0.878 -1.086,-1.949 -1.086,-3.207 0,-1.761 0.617,-2.972 1.848,-3.636 1.223,-0.66 2.5,-1.086 3.816,-1.278 1.137,-0.125 2.082,-0.234 2.832,-0.324 0.766,-0.098 1.516,-0.191 2.27,-0.285 0.762,-0.098 1.543,-0.203 2.359,-0.332 0.821,-0.125 1.828,-0.281 3.028,-0.473 3.898,-0.629 7.113,-2.125 9.628,-4.484 2.524,-2.363 3.782,-5.492 3.782,-9.395" /></g></g></svg>