<?xml version="1.0" encoding="iso-8859-1"?>
<!-- Generator: Adobe Illustrator 18.0.0, SVG Export Plug-In . SVG Version: 6.00 Build 0)  -->
<!DOCTYPE svg PUBLIC "-//W3C//DTD SVG 1.1//EN" "http://www.w3.org/Graphics/SVG/1.1/DTD/svg11.dtd">
<svg version="1.1" id="Capa_1" xmlns="http://www.w3.org/2000/svg" xmlns:xlink="http://www.w3.org/1999/xlink" x="0px" y="0px"
	 viewBox="0 0 426.557 426.557" style="enable-background:new 0 0 426.557 426.557;" xml:space="preserve">
<g>
	<path d="M347.821,296.157l-157.052-55.573V89.097c0-3.365-1.401-6.577-3.867-8.866c-2.466-2.289-5.773-3.445-9.129-3.199
		C87.192,83.681,15.769,159.278,15.769,251.557c0,96.65,78.35,175,175,175c75.508,0,139.842-47.824,164.375-114.834
		c1.111-3.034,0.961-6.387-0.414-9.311C353.355,299.489,350.867,297.235,347.821,296.157z"/>
	<path d="M343.261,51.092c-0.036-3.469-1.554-6.766-4.179-9.034C311.484,18.226,276.365,2.867,237.764,0.032
		c-3.353-0.246-6.657,0.915-9.121,3.203c-2.464,2.288-3.875,5.499-3.875,8.862v151.487l114.503-103.38
		C341.846,57.879,343.297,54.561,343.261,51.092z"/>
	<path d="M368.461,109.468c-2.126-2.47-5.159-3.978-8.412-4.182c-3.253-0.204-6.449,0.914-8.869,3.098l-115.412,104.2
		l155.571,55.049c3.3,1.168,6.944,0.847,9.992-0.875c3.048-1.722,5.213-4.68,5.912-8.111
		C417.914,206.273,404.351,151.17,368.461,109.468z"/>
</g>
</svg>
