<?xml version="1.0" encoding="UTF-8" standalone="no"?>
<!-- Generator: Adobe Illustrator 18.0.0, SVG Export Plug-In . SVG Version: 6.00 Build 0)  -->

<svg
   xmlns:dc="http://purl.org/dc/elements/1.1/"
   xmlns:cc="http://creativecommons.org/ns#"
   xmlns:rdf="http://www.w3.org/1999/02/22-rdf-syntax-ns#"
   xmlns:svg="http://www.w3.org/2000/svg"
   xmlns="http://www.w3.org/2000/svg"
   xmlns:sodipodi="http://sodipodi.sourceforge.net/DTD/sodipodi-0.dtd"
   xmlns:inkscape="http://www.inkscape.org/namespaces/inkscape"
   version="1.1"
   id="Capa_1"
   x="0px"
   y="0px"
   viewBox="0 0 426.557 426.557"
   style="enable-background:new 0 0 426.557 426.557;"
   xml:space="preserve"
   inkscape:version="0.48.4 r9939"
   width="100%"
   height="100%"
   sodipodi:docname="plotly-3d-chart2.svg"><metadata
     id="metadata3067"><rdf:RDF><cc:Work
         rdf:about=""><dc:format>image/svg+xml</dc:format><dc:type
           rdf:resource="http://purl.org/dc/dcmitype/StillImage" /><dc:title></dc:title></cc:Work></rdf:RDF></metadata><defs
     id="defs3065" /><sodipodi:namedview
     pagecolor="#ffffff"
     bordercolor="#666666"
     borderopacity="1"
     objecttolerance="10"
     gridtolerance="10"
     guidetolerance="10"
     inkscape:pageopacity="0"
     inkscape:pageshadow="2"
     inkscape:window-width="1600"
     inkscape:window-height="841"
     id="namedview3063"
     showgrid="false"
     inkscape:zoom="0.79569965"
     inkscape:cx="72.053664"
     inkscape:cy="42.312038"
     inkscape:window-x="0"
     inkscape:window-y="27"
     inkscape:window-maximized="1"
     inkscape:current-layer="Capa_1" /><path
     style="fill:none;stroke:#000000;stroke-width:25;stroke-linecap:butt;stroke-linejoin:miter;stroke-miterlimit:4;stroke-opacity:1;stroke-dasharray:none"
     d="m 213.27867,41.731357 -3.5e-4,343.094283"
     id="path3098"
     inkscape:connector-curvature="0"
     sodipodi:nodetypes="cc" /><path
     style="fill:none;stroke:#000000;stroke-width:25;stroke-linecap:butt;stroke-linejoin:miter;stroke-miterlimit:4;stroke-opacity:1;stroke-dasharray:none"
     d="M 384.82563,213.27867 41.73136,213.27832"
     id="path3098-5"
     inkscape:connector-curvature="0"
     sodipodi:nodetypes="cc" /><path
     style="fill:none;stroke:#000000;stroke-width:25;stroke-linecap:butt;stroke-linejoin:miter;stroke-miterlimit:4;stroke-opacity:1;stroke-dasharray:none"
     d="M 53.541784,317.91826 373.01521,108.63873"
     id="path3886"
     inkscape:connector-curvature="0" /><path
     sodipodi:type="arc"
     style="fill:#000000;fill-opacity:1;stroke:#000000;stroke-width:13.69999981;stroke-miterlimit:4;stroke-opacity:1;stroke-dasharray:none;stroke-dashoffset:0"
     id="path3888"
     sodipodi:cx="136.98636"
     sodipodi:cy="824.94855"
     sodipodi:rx="56.554001"
     sodipodi:ry="66.608047"
     d="m 193.54036,824.94855 a 56.554001,66.608047 0 1 1 -113.108002,0 56.554001,66.608047 0 1 1 113.108002,0 z"
     transform="matrix(0.27837038,0,0,0.2363522,27.814303,180.71243)" /><path
     sodipodi:type="arc"
     style="fill:#000000;fill-opacity:1;stroke:#000000;stroke-width:13.69999981;stroke-miterlimit:4;stroke-opacity:1;stroke-dasharray:none;stroke-dashoffset:0"
     id="path3888-5"
     sodipodi:cx="136.98636"
     sodipodi:cy="824.94855"
     sodipodi:rx="56.554001"
     sodipodi:ry="66.608047"
     d="m 193.54036,824.94855 a 56.554001,66.608047 0 1 1 -113.108002,0 56.554001,66.608047 0 1 1 113.108002,0 z"
     transform="matrix(0.35554064,0,0,0.30187412,84.511875,-174.36519)" /><path
     sodipodi:type="arc"
     style="fill:#000000;fill-opacity:1;stroke:#000000;stroke-width:13.69999981;stroke-miterlimit:4;stroke-opacity:1;stroke-dasharray:none;stroke-dashoffset:0"
     id="path3888-50"
     sodipodi:cx="136.98636"
     sodipodi:cy="824.94855"
     sodipodi:rx="56.554001"
     sodipodi:ry="66.608047"
     d="m 193.54036,824.94855 a 56.554001,66.608047 0 1 1 -113.108002,0 56.554001,66.608047 0 1 1 113.108002,0 z"
     transform="matrix(0.35554064,0,0,0.30187412,311.98464,119.71562)" /><path
     sodipodi:type="arc"
     style="fill:#000000;fill-opacity:1;stroke:#000000;stroke-width:13.69999981;stroke-miterlimit:4;stroke-opacity:1;stroke-dasharray:none;stroke-dashoffset:0"
     id="path3888-8"
     sodipodi:cx="136.98636"
     sodipodi:cy="824.94855"
     sodipodi:rx="56.554001"
     sodipodi:ry="66.608047"
     d="m 193.54036,824.94855 a 56.554001,66.608047 0 1 1 -113.108002,0 56.554001,66.608047 0 1 1 113.108002,0 z"
     transform="matrix(0.35554064,0,0,0.30187412,105.13348,153.36425)" /><path
     sodipodi:type="arc"
     style="fill:#000000;fill-opacity:1;stroke:#000000;stroke-width:13.69999981;stroke-miterlimit:4;stroke-opacity:1;stroke-dasharray:none;stroke-dashoffset:0"
     id="path3888-7"
     sodipodi:cx="136.98636"
     sodipodi:cy="824.94855"
     sodipodi:rx="56.554001"
     sodipodi:ry="66.608047"
     d="m 193.54036,824.94855 a 56.554001,66.608047 0 1 1 -113.108002,0 56.554001,66.608047 0 1 1 113.108002,0 z"
     transform="matrix(0.27837038,0,0,0.2363522,238.35328,142.34895)" /><path
     sodipodi:type="arc"
     style="fill:#000000;fill-opacity:1;stroke:#000000;stroke-width:13.69999981;stroke-miterlimit:4;stroke-opacity:1;stroke-dasharray:none;stroke-dashoffset:0"
     id="path3888-3"
     sodipodi:cx="136.98636"
     sodipodi:cy="824.94855"
     sodipodi:rx="56.554001"
     sodipodi:ry="66.608047"
     d="m 193.54036,824.94855 a 56.554001,66.608047 0 1 1 -113.108002,0 56.554001,66.608047 0 1 1 113.108002,0 z"
     transform="matrix(0.19883599,0,0,0.168823,82.126947,-1.7941007)" /><path
     sodipodi:type="arc"
     style="fill:#000000;fill-opacity:1;stroke:#000000;stroke-width:13.69999981;stroke-miterlimit:4;stroke-opacity:1;stroke-dasharray:none;stroke-dashoffset:0"
     id="path3888-3-3"
     sodipodi:cx="136.98636"
     sodipodi:cy="824.94855"
     sodipodi:rx="56.554001"
     sodipodi:ry="66.608047"
     d="m 193.54036,824.94855 a 56.554001,66.608047 0 1 1 -113.108002,0 56.554001,66.608047 0 1 1 113.108002,0 z"
     transform="matrix(0.19883599,0,0,0.168823,31.086453,-55.861614)" /><path
     sodipodi:type="arc"
     style="fill:#000000;fill-opacity:1;stroke:#000000;stroke-width:13.69999981;stroke-miterlimit:4;stroke-opacity:1;stroke-dasharray:none;stroke-dashoffset:0"
     id="path3888-3-3-9-6"
     sodipodi:cx="136.98636"
     sodipodi:cy="824.94855"
     sodipodi:rx="56.554001"
     sodipodi:ry="66.608047"
     d="m 193.54036,824.94855 a 56.554001,66.608047 0 1 1 -113.108002,0 56.554001,66.608047 0 1 1 113.108002,0 z"
     transform="matrix(0.11930159,0,0,0.1012938,305.38673,156.995)" /><path
     sodipodi:type="arc"
     style="fill:#000000;fill-opacity:1;stroke:#000000;stroke-width:13.69999981;stroke-miterlimit:4;stroke-opacity:1;stroke-dasharray:none;stroke-dashoffset:0"
     id="path3888-3-3-9-4"
     sodipodi:cx="136.98636"
     sodipodi:cy="824.94855"
     sodipodi:rx="56.554001"
     sodipodi:ry="66.608047"
     d="m 193.54036,824.94855 a 56.554001,66.608047 0 1 1 -113.108002,0 56.554001,66.608047 0 1 1 113.108002,0 z"
     transform="matrix(0.11930159,0,0,0.1012938,245.06248,180.87335)" /><path
     sodipodi:type="arc"
     style="fill:#000000;fill-opacity:1;stroke:#000000;stroke-width:13.69999981;stroke-miterlimit:4;stroke-opacity:1;stroke-dasharray:none;stroke-dashoffset:0"
     id="path3888-3-3-9-7"
     sodipodi:cx="136.98636"
     sodipodi:cy="824.94855"
     sodipodi:rx="56.554001"
     sodipodi:ry="66.608047"
     d="m 193.54036,824.94855 a 56.554001,66.608047 0 1 1 -113.108002,0 56.554001,66.608047 0 1 1 113.108002,0 z"
     transform="matrix(0.11930159,0,0,0.1012938,273.96785,-1.356212)" /><path
     sodipodi:type="arc"
     style="fill:#000000;fill-opacity:1;stroke:#000000;stroke-width:13.69999981;stroke-miterlimit:4;stroke-opacity:1;stroke-dasharray:none;stroke-dashoffset:0"
     id="path3888-3-3-9-65"
     sodipodi:cx="136.98636"
     sodipodi:cy="824.94855"
     sodipodi:rx="56.554001"
     sodipodi:ry="66.608047"
     d="m 193.54036,824.94855 a 56.554001,66.608047 0 1 1 -113.108002,0 56.554001,66.608047 0 1 1 113.108002,0 z"
     transform="matrix(0.11930159,0,0,0.1012938,227.46789,-46.599414)" /><path
     sodipodi:type="arc"
     style="fill:#000000;fill-opacity:1;stroke:#000000;stroke-width:13.69999981;stroke-miterlimit:4;stroke-opacity:1;stroke-dasharray:none;stroke-dashoffset:0"
     id="path3888-3-3-9-68"
     sodipodi:cx="136.98636"
     sodipodi:cy="824.94855"
     sodipodi:rx="56.554001"
     sodipodi:ry="66.608047"
     d="m 193.54036,824.94855 a 56.554001,66.608047 0 1 1 -113.108002,0 56.554001,66.608047 0 1 1 113.108002,0 z"
     transform="matrix(0.11930159,0,0,0.1012938,290.30568,-29.004835)" /><path
     sodipodi:type="arc"
     style="fill:#000000;fill-opacity:1;stroke:#000000;stroke-width:13.69999981;stroke-miterlimit:4;stroke-opacity:1;stroke-dasharray:none;stroke-dashoffset:0"
     id="path3888-3-3-9-48"
     sodipodi:cx="136.98636"
     sodipodi:cy="824.94855"
     sodipodi:rx="56.554001"
     sodipodi:ry="66.608047"
     d="m 193.54036,824.94855 a 56.554001,66.608047 0 1 1 -113.108002,0 56.554001,66.608047 0 1 1 113.108002,0 z"
     transform="matrix(0.07953439,0,0,0.0675292,361.09102,152.18692)" /><path
     sodipodi:type="arc"
     style="fill:#000000;fill-opacity:1;stroke:#000000;stroke-width:13.69999981;stroke-miterlimit:4;stroke-opacity:1;stroke-dasharray:none;stroke-dashoffset:0"
     id="path3888-3-3-9-48-6"
     sodipodi:cx="136.98636"
     sodipodi:cy="824.94855"
     sodipodi:rx="56.554001"
     sodipodi:ry="66.608047"
     d="m 193.54036,824.94855 a 56.554001,66.608047 0 1 1 -113.108002,0 56.554001,66.608047 0 1 1 113.108002,0 z"
     transform="matrix(0.07953439,0,0,0.0675292,372.41533,18.957312)" /></svg>