<?xml version="1.0" encoding="iso-8859-1"?>
<!-- Generator: Adobe Illustrator 16.0.0, SVG Export Plug-In . SVG Version: 6.00 Build 0)  -->
<!DOCTYPE svg PUBLIC "-//W3C//DTD SVG 1.1//EN" "http://www.w3.org/Graphics/SVG/1.1/DTD/svg11.dtd">
<svg version="1.1" id="Capa_1" xmlns="http://www.w3.org/2000/svg" xmlns:xlink="http://www.w3.org/1999/xlink" x="0px" y="0px"
	 width="31.998px" height="31.998px" viewBox="0 0 31.998 31.998" style="enable-background:new 0 0 31.998 31.998;"
	 xml:space="preserve">
<g>
	<g>
		<path d="M27.826,15.968c-3.012,0-7.82,0.896-13.934,2.589c0.031-0.061,0.06-0.117,0.085-0.165c0.28,0.072,0.54,0.022,0.656-0.156
			c0.129-0.196,0.048-0.488-0.176-0.729c0.424-0.382,1.096-0.624,1.752-0.857c0.877-0.313,1.777-0.642,2.113-1.32
			c0.047-0.057,0.078-0.127,0.078-0.207c0-0.184-0.148-0.333-0.332-0.333c-0.185,0-0.332,0.149-0.332,0.333
			c0,0.146,0.096,0.267,0.226,0.312c-0.364,0.45-1.081,0.71-1.838,0.98c-0.646,0.23-1.309,0.468-1.768,0.849
			c0.157-1.042,0.187-1.766,0.21-2.359c0.029-0.742,0.052-1.236,0.309-1.854c0.056,0.041,0.121,0.07,0.195,0.07
			c0.184,0,0.332-0.149,0.332-0.332c0-0.184-0.148-0.333-0.332-0.333c-0.161,0-0.288,0.116-0.32,0.268
			c-0.373,0.773-0.4,1.34-0.433,2.171c-0.023,0.588-0.054,1.31-0.21,2.346c-0.369-0.193-0.76-0.176-0.912,0.057
			c-0.027,0.042-0.045,0.088-0.054,0.138c0.566-5.988,0.608-10.639,0.114-13.5c-0.472-2.73-1.447-3.987-2.897-3.736
			c-1.491,0.39-1.742,2.955-1.893,4.488C8.448,4.878,8.432,5.053,8.414,5.201C8.362,5.629,7.496,6.676,6.73,7.599
			c-1.263,1.523-2.567,3.099-2.393,4.116l0.006,0.029c0.085,0.42,0.473,0.928,1.111,1.569c-1.077-0.281-2.096-0.228-2.971,0.17
			c-1.058,0.481-1.826,1.437-2.056,2.558c-0.43,2.102-0.534,3.731-0.318,4.984c0.34,1.967,1.483,2.876,3.308,2.632
			c2.312,0.519,5.888-1.584,6.04-1.674c0.303-0.208,0.755-0.528,1.204-0.879c-0.536,0.911-0.964,1.789-0.881,1.985
			c0.065,0.155,0.523-0.178,1.089-0.695c-0.069,0.145-0.131,0.276-0.183,0.39c-0.063,0.166-1.527,4.048-0.622,6.237
			c0.07,1.839,1.159,2.811,3.155,2.811c1.271,0,2.86-0.38,4.858-1.161c1.064-0.417,1.876-1.337,2.17-2.461
			c0.243-0.93,0.122-1.941-0.338-2.957c0.74,0.521,1.307,0.817,1.735,0.829h0.028c1.032,0,2.361-1.555,3.648-3.058
			c0.78-0.911,1.664-1.944,2.077-2.067c0.142-0.042,0.312-0.089,0.5-0.141c1.484-0.408,3.97-1.092,4.1-2.627
			C32.001,16.714,30.598,15.968,27.826,15.968z M13.29,17.924c-0.064,0.063-0.139,0.133-0.215,0.205
			c0.023-0.23,0.046-0.461,0.067-0.688C13.118,17.589,13.174,17.763,13.29,17.924z M9.1,21.422c-0.017,0.01-3.542,2.082-5.586,1.574
			L3.451,22.98l-0.064,0.01c-1.505,0.221-2.337-0.439-2.619-2.078c-0.301-1.738,0.162-3.996,0.313-4.738
			c0.187-0.912,0.814-1.692,1.679-2.086c1.134-0.515,2.581-0.335,4.076,0.505c0.068,0.06,0.136,0.12,0.205,0.182
			c-0.282,0.022-0.597,0.117-0.819,0.388c-0.506,0.614-0.436,6.513,0.191,6.608c0.628,0.096,1.665-1.468,1.182-4.758
			c0.585,0.079,0.884-0.47,1.021-0.854c0.261,0.232,0.517,0.465,0.764,0.695c0.755,0.767,1.458,1.544,1.84,2.056
			c0.091,0.156,0.159,0.303,0.193,0.437c0.005,0.054,0.017,0.102,0.028,0.149C11.143,19.894,10.071,20.755,9.1,21.422z
			 M11.806,18.609c-0.397-0.689-1.164-1.49-2.063-2.323c-0.131-0.131-0.263-0.261-0.394-0.388c0.084-0.456,0.013-1.341,0.013-1.341
			s0.796-0.517,0.361-1.37c0.602-0.378,1.69-1.156,0.897-2.453c-0.794-1.297-2.423,0.987-1.963,1.456
			c-0.868,0.608-0.997,1.609-0.99,2.19c-0.172-0.138-0.321-0.25-0.439-0.327c-1.112-0.988-2.137-1.962-2.232-2.441l-0.33,0.046
			l0.327-0.057c-0.123-0.716,1.248-2.37,2.249-3.579c1.089-1.314,1.762-2.15,1.832-2.743c0.018-0.151,0.035-0.331,0.055-0.53
			C9.245,3.568,9.484,1.112,10.5,0.845c0.988-0.169,1.705,0.905,2.102,3.201c0.522,3.026,0.432,8.125-0.262,14.744
			c-0.033,0.029-0.068,0.061-0.101,0.087c-0.048,0.04-0.104,0.099-0.165,0.165C12.011,18.916,11.921,18.772,11.806,18.609z
			 M19.605,28.04c-0.239,0.919-0.901,1.671-1.77,2.01c-0.706,0.276-2.853,1.116-4.616,1.116c-1.662,0-2.455-0.708-2.493-2.227
			l-0.002-0.066l-0.026-0.06C9.85,26.885,11.293,23.06,11.3,23.04c0.492-1.068,1.158-2.271,1.498-2.633
			c0.049,0.003,0.099,0.006,0.153,0.002c0.137,0.011,0.292,0.053,0.462,0.116c0.57,0.29,1.455,0.85,2.34,1.463
			c0.269,0.204,0.541,0.417,0.814,0.634c-0.354,0.201-0.845,0.589-0.667,1.151c-3.324,0.083-4.688,1.372-4.487,1.974
			c0.201,0.603,6.024-0.333,6.545-0.935c0.229-0.267,0.271-0.592,0.242-0.875c0.072,0.058,0.146,0.115,0.214,0.171
			C19.497,25.441,19.921,26.835,19.605,28.04z M27.726,20.174c-0.192,0.054-0.367,0.102-0.515,0.146
			c-0.57,0.17-1.28,0.975-2.392,2.271c-1.021,1.192-2.418,2.825-3.146,2.825v0.333l-0.01-0.333
			c-0.489-0.013-1.623-0.856-2.786-1.785c-0.097-0.104-0.23-0.23-0.396-0.377c0.573-0.093,1.538-0.39,1.989-1.349
			c0.539,0.374,2.514-1.621,1.102-2.182c-1.413-0.562-1.994,0.644-2.265,1.302c-0.914-0.284-1.288,0.589-1.288,0.589
			s-0.885,0.081-1.319,0.24c-0.147-0.107-0.298-0.215-0.449-0.321c-0.975-0.744-1.893-1.362-2.641-1.637
			c-0.13-0.062-0.25-0.114-0.356-0.153c0.073-0.129,0.144-0.255,0.21-0.377c6.347-1.787,11.312-2.732,14.362-2.732
			c2.329,0,3.511,0.522,3.512,1.525C31.248,19.204,28.868,19.859,27.726,20.174z"/>
		<path d="M24.377,17.396c-0.894,0.499-0.408,3.876,1.337,2.971s5.39-1.26,4.736-2.548S25.271,16.897,24.377,17.396z"/>
		<path d="M14.529,28.615c-1.475-0.582-3.304-0.437-3.304,0.374c0,0.81,0.146,1.122,1.33,1.517c1.185,0.396,4.238-0.333,4.653-0.935
			C17.625,28.968,16.004,29.196,14.529,28.615z"/>
		<path d="M15.826,28.263c0.887,0.641,2.964,1.215,3.158,0.41c0.192-0.803,0.665-1.661,0-2.409S14.94,27.621,15.826,28.263z"/>
		<path d="M12.437,7.575c0.339-0.965-0.07-5.489-1.451-5.913C9.605,1.239,9.876,4.89,9.281,6.763
			C8.687,8.637,12.097,8.54,12.437,7.575z"/>
		<path d="M1.659,16.71c-0.522,0.513-0.719,3.646-0.129,4.745c0.591,1.101,0.922,1.19,1.721,1.052
			c0.799-0.138,0.631-1.964-0.193-3.318C2.234,17.833,2.183,16.198,1.659,16.71z"/>
		<path d="M4.616,14.398C3.766,13.87,3,14.48,2.241,14.808c-0.758,0.328,0.16,2.277,0.943,3.042
			C3.967,18.615,5.467,14.926,4.616,14.398z"/>
	</g>
</g>
<g>
</g>
<g>
</g>
<g>
</g>
<g>
</g>
<g>
</g>
<g>
</g>
<g>
</g>
<g>
</g>
<g>
</g>
<g>
</g>
<g>
</g>
<g>
</g>
<g>
</g>
<g>
</g>
<g>
</g>
</svg>
