<?xml version="1.0" encoding="iso-8859-1"?>
<!-- Generator: Adobe Illustrator 18.0.0, SVG Export Plug-In . SVG Version: 6.00 Build 0)  -->
<!DOCTYPE svg PUBLIC "-//W3C//DTD SVG 1.1//EN" "http://www.w3.org/Graphics/SVG/1.1/DTD/svg11.dtd">
<svg version="1.1" id="Capa_1" xmlns="http://www.w3.org/2000/svg" xmlns:xlink="http://www.w3.org/1999/xlink" x="0px" y="0px"
	 viewBox="0 0 297.167 297.167" style="enable-background:new 0 0 297.167 297.167;" xml:space="preserve">
<g>
	<path d="M281,259.573H17c-8.284,0-15,6.716-15,15c0,8.284,6.716,15,15,15h264c8.284,0,15-6.716,15-15
		C296,266.289,289.284,259.573,281,259.573z"/>
	<path d="M33,238.094c18.225,0,33-14.775,33-33c0-7.018-2.197-13.519-5.932-18.867l23.502-44.049c0.2,0.004,0.397,0.015,0.598,0.015
		c5.049,0,9.83-1.138,14.109-3.165l51.293,39.584c-0.367,1.972-0.569,4.002-0.569,6.081c0,18.225,14.775,33,33,33
		c18.225,0,33-14.775,33-33c0-6.686-1.994-12.903-5.412-18.101l53.051-93.037c0.507,0.023,1.016,0.039,1.528,0.039
		c18.225,0,33-14.775,33-33s-14.775-33-33-33s-33,14.775-33,33c0,6.686,1.994,12.903,5.412,18.101l-53.051,93.036
		c-0.507-0.023-1.015-0.039-1.528-0.039c-5.049,0-9.83,1.138-14.109,3.164l-51.293-39.584c0.368-1.972,0.569-4.002,0.569-6.08
		c0-18.225-14.775-33-33-33c-18.225,0-33,14.775-33,33c0,7.018,2.197,13.519,5.932,18.867l-23.502,44.049
		c-0.2-0.004-0.397-0.015-0.597-0.015c-18.225,0-33,14.775-33,33C0,223.319,14.775,238.094,33,238.094z"/>
</g>
</svg>
