<?xml version="1.0" encoding="iso-8859-1"?>
<!-- Generator: Adobe Illustrator 18.0.0, SVG Export Plug-In . SVG Version: 6.00 Build 0)  -->
<!DOCTYPE svg PUBLIC "-//W3C//DTD SVG 1.1//EN" "http://www.w3.org/Graphics/SVG/1.1/DTD/svg11.dtd">
<svg version="1.1" id="Capa_1" xmlns="http://www.w3.org/2000/svg" xmlns:xlink="http://www.w3.org/1999/xlink" x="0px" y="0px"
	 viewBox="0 0 427.725 427.725" style="enable-background:new 0 0 427.725 427.725;" xml:space="preserve">
<g>
	<path d="M296.547,132.592l11.714-11.714c0.391-0.391,0.391-1.023,0-1.414c-0.391-0.391-1.023-0.391-1.414,0l-11.714,11.714
		c-20.724-20.373-49.044-33.037-80.271-33.303V81.362c0-0.553-0.448-1-1-1c-0.552,0-1,0.447-1,1v16.513
		c-31.227,0.266-59.546,12.93-80.271,33.303l-11.714-11.714c-0.391-0.391-1.023-0.391-1.414,0c-0.391,0.391-0.391,1.023,0,1.414
		l11.714,11.714c-16.428,16.71-27.842,38.358-31.787,62.489c-0.781-0.121-1.575-0.205-2.39-0.205
		c-8.636,0-15.638,7.005-15.638,15.641c0,0.8,0.079,1.578,0.195,2.346h-0.195c-0.552,0-1,0.447-1,1s0.448,1,1,1h0.625
		c1.885,6.518,7.887,11.289,15.013,11.289c0.508,0,1.008-0.031,1.504-0.078c2.813,26.766,14.768,50.846,32.673,69.06l-11.714,11.714
		c-0.391,0.391-0.391,1.023,0,1.414c0.195,0.195,0.451,0.293,0.707,0.293c0.256,0,0.512-0.098,0.707-0.293l11.714-11.714
		c20.724,20.373,49.044,33.037,80.271,33.303v16.513c0,0.553,0.448,1,1,1c0.552,0,1-0.447,1-1V329.85
		c31.227-0.266,59.546-12.93,80.271-33.303l11.714,11.714c0.195,0.195,0.451,0.293,0.707,0.293c0.256,0,0.512-0.098,0.707-0.293
		c0.391-0.391,0.391-1.023,0-1.414l-11.714-11.714c20.373-20.724,33.037-49.044,33.303-80.27h16.513c0.552,0,1-0.447,1-1
		s-0.448-1-1-1H329.85C329.584,181.636,316.92,153.315,296.547,132.592z M327.85,212.862h-49.204l-4.867-41.959
		c5.267-2.512,8.911-7.875,8.911-14.098c0-2.965-0.839-5.725-2.27-8.088l14.713-14.713
		C315.145,154.367,327.584,182.188,327.85,212.862z M268.998,217.489c-5.267,2.513-8.911,7.876-8.911,14.099
		c0,3.156,0.942,6.088,2.55,8.546l-9.247,11.842l-6.326-6.325c7.703-8.042,12.516-18.86,12.773-30.788h8.856L268.998,217.489z
		 M179.184,249.955l2.891-2.891c8.042,7.702,18.86,12.516,30.788,12.772v35.29c-1.765,0.121-3.452,0.517-5.008,1.177l-29.675-33.214
		c1.275-2.263,2.011-4.87,2.011-7.656C180.19,253.503,179.824,251.662,179.184,249.955z M164.553,239.793
		c-3.581,0-6.871,1.221-9.507,3.247l-42.367-28.178h55.209c0.257,11.928,5.07,22.746,12.773,30.788l-2.349,2.348
		C175.667,243.112,170.497,239.793,164.553,239.793z M112.598,209.717l67.485-27.036c-7.367,7.975-11.945,18.553-12.195,30.182
		h-55.443c0.121-0.765,0.193-1.545,0.193-2.346C112.638,210.248,112.613,209.983,112.598,209.717z M214.862,179.267
		c5.213-0.303,9.738-3.149,12.348-7.328c6.446,2.057,12.246,5.566,17.026,10.136l-29.374,29.374V179.267z M202.102,173.859
		c2.647,3.074,6.465,5.091,10.761,5.387v32.202l-29.374-29.374c0.482-0.461,0.973-0.91,1.476-1.349L202.102,173.859z
		 M211.448,212.862h-41.561c0.256-11.376,4.846-21.695,12.187-29.374L211.448,212.862z M211.448,214.862l-29.374,29.374
		c-7.341-7.679-11.931-17.998-12.187-29.374H211.448z M212.862,216.276v41.561c-11.376-0.256-21.695-4.846-29.374-12.186
		L212.862,216.276z M214.862,216.276l29.374,29.374c-7.679,7.341-17.998,11.931-29.374,12.186V216.276z M216.276,214.862h41.561
		c-0.256,11.376-4.846,21.695-12.187,29.374L216.276,214.862z M216.276,212.862l29.374-29.374
		c7.341,7.679,11.931,17.998,12.187,29.374H216.276z M245.65,180.66c-4.917-4.709-10.871-8.34-17.484-10.51
		c0.486-1.066,0.868-2.189,1.106-3.366l23.77-3.067c1.021,2.064,2.484,3.864,4.262,5.29L245.65,180.66z M214.862,259.837
		c11.927-0.257,22.746-5.07,30.788-12.772l6.5,6.5l-33.091,42.377c-1.329-0.459-2.736-0.741-4.197-0.829V259.837z M259.837,212.862
		c-0.257-11.928-5.07-22.746-12.773-30.788l11.904-11.903c1.451,0.882,3.053,1.541,4.766,1.912l4.728,40.779H259.837z
		 M293.719,132.591l-14.456,14.456c-2.865-3.582-7.266-5.882-12.211-5.882c-7.568,0-13.878,5.376-15.324,12.522l-23.77,3.067
		c-2.425-4.907-7.338-8.356-13.097-8.69V99.875C245.538,100.141,273.357,112.58,293.719,132.591z M212.862,99.875v48.211
		c-8.129,0.559-14.555,7.31-14.555,15.58c0,0.269,0.028,0.533,0.04,0.8l-23.181,9.287l-41.162-41.162
		C154.367,112.58,182.187,100.141,212.862,99.875z M132.591,134.005l40.557,40.557l-64.304,25.763
		c-1.952-2.271-4.549-3.954-7.498-4.811C105.206,171.762,116.429,150.451,132.591,134.005z M100.48,225.747
		c2.226-0.511,4.274-1.488,6.027-2.837l42.938,28.549c-0.335,1.271-0.531,2.6-0.531,3.975c0,5.944,3.318,11.114,8.202,13.761
		l-24.525,24.525C114.975,275.794,103.222,252.092,100.48,225.747z M134.005,295.134l25.066-25.067
		c1.708,0.641,3.55,1.008,5.481,1.008c2.161,0,4.221-0.442,6.091-1.23l29.675,33.208c-1.275,2.262-2.011,4.876-2.011,7.656
		c0,8.275,6.426,15.027,14.555,15.586v1.556C182.187,327.584,154.367,315.145,134.005,295.134z M214.862,327.85v-1.547
		c8.207-0.477,14.721-7.263,14.721-15.595c0-3.15-0.942-6.082-2.55-8.54l32.323-41.398l34.364,34.364
		C273.357,315.145,245.538,327.584,214.862,327.85z M295.133,293.72l-34.538-34.538l10.016-12.828
		c1.605,0.555,3.32,0.875,5.113,0.875c8.636,0,15.638-7.005,15.638-15.641c0-7.494-5.278-13.75-12.316-15.277l-0.168-1.448h48.972
		C327.584,245.537,315.145,273.357,295.133,293.72z"/>
	<path d="M425.437,202.307L371.539,72.317c-3.047-7.35-8.89-13.187-16.242-16.23L225.269,2.28c-3.672-1.52-7.572-2.279-11.471-2.279
		c-3.906,0-7.811,0.763-11.49,2.288L72.317,56.186c-7.35,3.047-13.188,8.89-16.23,16.241L2.28,202.457
		c-3.043,7.352-3.039,15.611,0.008,22.961l53.898,129.989c3.047,7.35,8.89,13.188,16.242,16.23l130.028,53.807
		c3.672,1.52,7.572,2.279,11.471,2.279c3.906,0,7.811-0.763,11.49-2.288l129.99-53.897c7.35-3.047,13.188-8.89,16.23-16.241
		l53.808-130.03C428.487,217.916,428.484,209.656,425.437,202.307z M343.917,343.827l-129.99,53.896L83.898,343.917L30,213.928
		l53.808-130.03l129.99-53.896l130.028,53.807l53.898,129.989L343.917,343.827z"/>
</g>
</svg>
