<svg id="Layer_1" data-name="Layer 1" xmlns="http://www.w3.org/2000/svg" viewBox="0 0 131.5 79.73"><defs><style>.cls-1{fill:#2c3e50;}.cls-2{fill:#26b99a;}</style></defs><title>crossfilter</title><path class="cls-1" d="M17.21,37.87l-1.41,1.76a5.6,5.6,0,0,0-4-1.82,5,5,0,1,0,0,10.1,5.93,5.93,0,0,0,4-1.7l1.43,1.6a8.14,8.14,0,0,1-5.55,2.36,7.25,7.25,0,1,1,.08-14.5A7.91,7.91,0,0,1,17.21,37.87Z"/><path class="cls-1" d="M21.89,41.34a4,4,0,0,1,3.77-2.25v2.25a3.3,3.3,0,0,0-3.77,3v5.69H19.54V39.17h2.36Z"/><path class="cls-1" d="M37.95,44.61a5.34,5.34,0,0,1-5.67,5.53,5.53,5.53,0,1,1,0-11.06A5.33,5.33,0,0,1,37.95,44.61Zm-9,0a3.34,3.34,0,1,0,6.66,0,3.33,3.33,0,1,0-6.66,0Z"/><path class="cls-1" d="M47.47,40.17l-.86,1.74a6.4,6.4,0,0,0-3.13-1c-.92,0-1.6.31-1.6,1.09,0,2,5.8.92,5.78,4.87,0,2.23-2,3.24-4.18,3.24a6.74,6.74,0,0,1-4.38-1.52l.84-1.68a5.94,5.94,0,0,0,3.65,1.35c1,0,1.78-.35,1.78-1.17,0-2.23-5.74-1-5.71-4.92,0-2.21,1.93-3.15,4-3.15A6.89,6.89,0,0,1,47.47,40.17Z"/><path class="cls-1" d="M57.09,40.17l-.86,1.74a6.4,6.4,0,0,0-3.13-1c-.92,0-1.6.31-1.6,1.09,0,2,5.8.92,5.78,4.87,0,2.23-2,3.24-4.18,3.24a6.74,6.74,0,0,1-4.38-1.52l.84-1.68A5.94,5.94,0,0,0,53.2,48.3c1,0,1.78-.35,1.78-1.17,0-2.23-5.74-1-5.71-4.92,0-2.21,1.93-3.15,4-3.15A6.89,6.89,0,0,1,57.09,40.17Z"/><path class="cls-1" d="M60.1,38.51a3.57,3.57,0,0,1,3.75-3.75,4.13,4.13,0,0,1,2,.49l-.08,2a4.82,4.82,0,0,0-1.88-.47,1.31,1.31,0,0,0-1.47,1.45v1.27h2.85v1.76H62.44v8.75H60.1V41.32H58.67V39.55H60.1Zm6.37-2.46a1.37,1.37,0,1,1,1.37,1.41A1.36,1.36,0,0,1,66.47,36.05ZM69,39.17v10.9H66.68V39.17Z"/><path class="cls-1" d="M72.59,50.06V34.86h2.36v15.2Z"/><path class="cls-1" d="M84.7,49.37a5.23,5.23,0,0,1-2.68.8A2.87,2.87,0,0,1,79,47V41.34H77.42V39.58H79v-3H81.3v3h3.22v1.76H81.3v5.22c0,1.13.43,1.47,1.17,1.47a3.8,3.8,0,0,0,1.64-.47Z"/><path class="cls-1" d="M96.33,45.52H88.09a3.32,3.32,0,0,0,3.38,2.72A4.24,4.24,0,0,0,94.55,47l1.25,1.33a5.93,5.93,0,0,1-4.51,1.84,5.24,5.24,0,0,1-5.57-5.51,5.29,5.29,0,0,1,5.51-5.55C95.06,39.08,96.61,41.58,96.33,45.52Zm-2-1.72a2.8,2.8,0,0,0-3-2.83,3.1,3.1,0,0,0-3.2,2.83Z"/><path class="cls-1" d="M101.14,41.34a4,4,0,0,1,3.77-2.25v2.25a3.3,3.3,0,0,0-3.77,3v5.69H98.78V39.17h2.36Z"/><path class="cls-2" d="M113.19,50.21A3.47,3.47,0,0,1,109.66,54a3.87,3.87,0,0,1-2.27-.74l.78-1.82a2.5,2.5,0,0,0,1.39.49c.72,0,1.29-.43,1.29-1.47V39h2.34Zm.29-14.32A1.44,1.44,0,1,1,112,34.46,1.39,1.39,0,0,1,113.47,35.9Z"/><path class="cls-2" d="M123.82,40,123,41.75a6.4,6.4,0,0,0-3.13-1c-.92,0-1.6.31-1.6,1.09,0,2,5.8.92,5.78,4.87C124,49,122,50,119.82,50a6.74,6.74,0,0,1-4.38-1.52l.84-1.68a5.94,5.94,0,0,0,3.65,1.35c1,0,1.78-.35,1.78-1.17,0-2.23-5.74-1-5.71-4.92,0-2.21,1.93-3.15,4-3.15A6.89,6.89,0,0,1,123.82,40Z"/></svg>