<?xml version="1.0" encoding="iso-8859-1"?>
<!-- Generator: Adobe Illustrator 18.1.1, SVG Export Plug-In . SVG Version: 6.00 Build 0)  -->
<svg version="1.1" id="Capa_1" xmlns="http://www.w3.org/2000/svg" xmlns:xlink="http://www.w3.org/1999/xlink" x="0px" y="0px"
  viewBox="0 0 456.186 456.186" style="enable-background:new 0 0 456.186 456.186;" xml:space="preserve">
<g>
 <g>
  <path d="M454.254,15.876c-3.117-5.383-8.783-8.783-15.017-8.783H17.071c-5.95,0-11.617,3.117-14.733,8.5s-3.117,11.617,0,17
   l143.65,248.2v151.3c0,9.35,7.65,17,17,17h113.333c9.35,0,17-7.65,17-17v-150.45L453.404,33.16
   C456.804,28.06,457.087,21.543,454.254,15.876z M262.154,267.476c-1.7,2.833-2.833,5.95-2.833,9.35v138.267h-79.333V276.26
   c0-3.117-0.85-5.95-2.267-8.5L46.538,41.093h361.533L262.154,267.476z"/>
 </g>
</g>
</svg>
